PathFileType	4	(X/Y/Z)	/Users/itak/Documents/Research/Walk-IL/dataset/trc/00321_00011.trc
DataRate	CameraRate	NumFrames	NumMarkers	Units	OrigDataRate	OrigDataStartFrame	OrigNumFrames
100.000000	100.000000	4	55	mm	100.000000	366	488
Frame#	Time	LPSI			L3			STRN			T10			C7			CLAV			RBAK			LBAK			LSHO			LUPA			LAEL			LAOL			LWTS			LWPS			LFRA			LIFD			LHPS			RSHO			RUPA			RAEL			RAOL			RWTS			RWPS			RFRA			RIFD			RHTS			RHPS			RBHD			LFHD			RFHD			LBHD			LHIP			RHIP			RASI			LASI			LKNE			LTHI			LANK			LTIP			LTOE			LMT1			LMT5			LHEE			RKNE			RTHI			RANK			RTIP			RTOE			RMT1			RMT5			RHEE			RPSI			LHTS			*53			*54			
		X1	Y1	Z1	X2	Y2	Z2	X3	Y3	Z3	X4	Y4	Z4	X5	Y5	Z5	X6	Y6	Z6	X7	Y7	Z7	X8	Y8	Z8	X9	Y9	Z9	X10	Y10	Z10	X11	Y11	Z11	X12	Y12	Z12	X13	Y13	Z13	X14	Y14	Z14	X15	Y15	Z15	X16	Y16	Z16	X17	Y17	Z17	X18	Y18	Z18	X19	Y19	Z19	X20	Y20	Z20	X21	Y21	Z21	X22	Y22	Z22	X23	Y23	Z23	X24	Y24	Z24	X25	Y25	Z25	X26	Y26	Z26	X27	Y27	Z27	X28	Y28	Z28	X29	Y29	Z29	X30	Y30	Z30	X31	Y31	Z31	X32	Y32	Z32	X33	Y33	Z33	X34	Y34	Z34	X35	Y35	Z35	X36	Y36	Z36	X37	Y37	Z37	X38	Y38	Z38	X39	Y39	Z39	X40	Y40	Z40	X41	Y41	Z41	X42	Y42	Z42	X43	Y43	Z43	X44	Y44	Z44	X45	Y45	Z45	X46	Y46	Z46	X47	Y47	Z47	X48	Y48	Z48	X49	Y49	Z49	X50	Y50	Z50	X51	Y51	Z51	X52	Y52	Z52	X53	Y53	Z53	X54	Y54	Z54	X55	Y55	Z55	

367	3.66	822.298828125	973.7183227539062	13.85619735717773	822.2347412109375	1025.82666015625	82.06261444091797	1035.403076171875	1221.063354492188	52.56552505493164	800.3665771484375	1144.941162109375	70.83064270019531	826.9017944335938	1394.507080078125	47.83834457397461	985.1182250976562	1343.07666015625	48.79544830322266	786.6088256835938	1255.502807617188	120.4212646484375	815.0711669921875	1355.133422851562	-52.16085052490234	898.168701171875	1373.984497070312	-111.6536254882812	877.394775390625	1252.674926757812	-175.6425476074219	884.8471069335938	1047.018920898438	-180.5574645996094	827.7020874023438	1039.456787109375	-116.9538650512695	957.7932739257812	796.3163452148438	-142.3135070800781	910.7890625	788.9962768554688	-192.32666015625	889.6683349609375	942.632568359375	-184.9636688232422	947.655029296875	636.1502075195312	-136.7440643310547	896.4400634765625	719.8788452148438	-184.5467681884766	891.117431640625	1385.99853515625	209.2655639648438	887.50244140625	1321.696166992188	275.0396118164062	939.6092529296875	1060.079833984375	323.6832275390625	901.2980346679688	1039.355712890625	239.6511840820312	1120.215698242188	887.2947387695312	272.7278137207031	1094.74853515625	857.8285522460938	338.98095703125	983.8638916015625	1001.629821777344	334.2730102539062	1202.357299804688	733.925537109375	281.1836853027344	1185.8583984375	805.6685180664062	283.5262451171875	1139.930419921875	787.3612670898438	332.205322265625	864.2872924804688	1594.590454101562	128.0374755859375	1025.206176757812	1624.5380859375	-1.305195569992065	1021.654174804688	1623.683349609375	99.72483062744141	842.544677734375	1588.313842773438	-15.45712375640869	903.3812255859375	917.293701171875	-94.35375213623047	918.7860107421875	918.2061767578125	245.8849487304688	1019.060607910156	949.0418090820312	196.3360137939453	1026.084716796875	948.6253051757812	-44.71681213378906	958.705810546875	460.6771850585938	-94.27482604980469	957.1851806640625	600.966064453125	-99.89317321777344	883.4619140625	41.25290298461914	-80.33187103271484	921.001220703125	244.4933013916016	-99.49029541015625	1093.349365234375	33.13553237915039	-37.71232223510742	1027.777465820312	21.63589096069336	9.437641143798828	1007.638916015625	33.34505462646484	-102.3426055908203	854.9813232421875	36.3974723815918	-10.59391307830811	936.4733276367188	453.6205139160156	209.0946807861328	985.234375	710.111083984375	238.4973907470703	883.2794189453125	41.70554351806641	171.6891326904297	941.0588989257812	336.3857116699219	197.3330230712891	1075.478881835938	34.02659225463867	115.3571548461914	1018.28759765625	29.77573585510254	74.92823791503906	983.3558349609375	27.58442878723145	187.7165374755859	832.0877685546875	44.49860382080078	124.1074829101562	831.8257446289062	971.9126586914062	142.3191528320312	953.648193359375	718.6475219726562	-155.904052734375	nan	nan	nan	nan	nan	nan	
368	3.67	824.0828247070312	973.8541259765625	13.21009922027588	824.114501953125	1025.716796875	81.51901245117188	1036.8388671875	1220.878173828125	51.79567337036133	801.9671020507812	1144.729370117188	70.56742858886719	828.3114624023438	1394.365600585938	47.36547088623047	986.5814819335938	1342.944458007812	48.04600524902344	788.0827026367188	1255.414184570312	120.0984573364258	816.267822265625	1354.838256835938	-52.60007858276367	899.2403564453125	1373.70849609375	-112.2146759033203	879.0079956054688	1252.312133789062	-176.1945495605469	888.7833862304688	1046.673095703125	-181.6358795166016	831.3908081054688	1038.386596679688	-118.375846862793	966.3241577148438	796.780029296875	-143.2819366455078	919.4290771484375	789.1109619140625	-193.3465423583984	895.3350830078125	942.3397827148438	-186.1602478027344	957.8238525390625	636.1954345703125	-137.7477874755859	906.6264038085938	719.729248046875	-185.6123199462891	892.7777099609375	1385.929077148438	208.6365966796875	889.2164916992188	1321.53955078125	274.4528503417969	939.375244140625	1059.34228515625	321.8308410644531	901.2484130859375	1039.357543945312	237.4805755615234	1117.483520507812	883.4078979492188	271.3009643554688	1091.333862304688	854.5240478515625	337.6139526367188	982.8148193359375	1000.255615234375	332.5380859375	1195.760009765625	727.8320922851562	279.5629577636719	1180.987060546875	799.8897705078125	282.0441589355469	1135.126953125	782.6400756835938	330.9188842773438	865.7174072265625	1594.5810546875	127.1264495849609	1026.534545898438	1624.268920898438	-2.39305591583252	1023.0595703125	1623.575317382812	98.64852142333984	843.8534545898438	1588.106323242188	-16.38298034667969	904.9027099609375	917.23974609375	-95.11561584472656	920.6710205078125	918.0996704101562	245.0713806152344	1020.955993652344	948.7849731445312	195.3960113525391	1027.564086914062	948.253173828125	-45.64419937133789	956.5369873046875	460.3060607910156	-95.33776092529297	956.0697631835938	600.7897338867188	-101.1432189941406	883.382568359375	41.03761672973633	-80.49101257324219	919.5838012695312	244.3717498779297	-99.97364044189453	1093.223266601562	33.1899299621582	-37.81339263916016	1027.792114257812	21.82222557067871	9.314915657043457	1007.578186035156	33.25233840942383	-102.4581146240234	854.8609008789062	36.28177261352539	-10.7586841583252	937.2048950195312	453.5792846679688	208.6008758544922	986.688232421875	710.0120239257812	237.740966796875	883.30029296875	41.75153350830078	171.5999603271484	941.6717529296875	336.3640747070312	196.8838500976562	1075.491333007812	34.06647491455078	115.3730239868164	1018.281616210938	29.74440383911133	74.90983581542969	983.3779907226562	27.62833023071289	187.6748352050781	832.1123657226562	44.55220031738281	124.0332107543945	833.7367553710938	971.968017578125	141.6341552734375	963.8380126953125	718.6754150390625	-156.9940643310547	nan	nan	nan	nan	nan	nan	
369	3.68	825.81103515625	973.90283203125	12.49688148498535	825.9190673828125	1025.536254882812	80.88327789306641	1038.253784179688	1220.592529296875	51.07231903076172	803.4564819335938	1144.4619140625	70.25624084472656	829.71923828125	1394.18408203125	46.91758346557617	988.040771484375	1342.71923828125	47.35474395751953	789.5809936523438	1255.25732421875	119.7523956298828	817.4650268554688	1354.501953125	-53.03105926513672	900.3235473632812	1373.327514648438	-112.7589111328125	880.5637817382812	1251.821899414062	-176.7001647949219	892.660400390625	1046.243774414062	-182.7063598632812	835.0465698242188	1037.194458007812	-119.8060302734375	974.8980712890625	797.3680419921875	-144.2291107177734	928.1729125976562	789.2633666992188	-194.3881530761719	900.9821166992188	941.9986572265625	-187.3879852294922	968.2936401367188	636.4190673828125	-138.7813568115234	917.047607421875	719.6261596679688	-186.6833953857422	894.4193115234375	1385.755126953125	208.0572052001953	890.8590698242188	1321.2509765625	273.8727722167969	939.1561279296875	1058.519897460938	320.0526428222656	901.1653442382812	1039.236938476562	235.4011535644531	1114.625610351562	879.4352416992188	269.9631652832031	1087.845703125	851.1857299804688	336.3219299316406	981.781494140625	998.8185424804688	330.8482055664062	1188.956420898438	721.7367553710938	278.0181579589844	1175.9248046875	794.0399169921875	280.6668395996094	1130.058959960938	777.9515991210938	329.7154235839844	867.109130859375	1594.539672851562	126.2061233520508	1027.8134765625	1623.958862304688	-3.507610082626343	1024.42724609375	1623.467407226562	97.54339599609375	845.1211547851562	1587.808471679688	-17.29706573486328	906.28564453125	917.1175537109375	-96.04225921630859	922.4583129882812	917.9791870117188	244.2202301025391	1022.792114257812	948.52490234375	194.4372863769531	1028.96435546875	947.7444458007812	-46.54813766479492	954.4447631835938	459.8583984375	-96.13226318359375	954.9776000976562	600.5250244140625	-102.2752456665039	883.2901611328125	40.85554885864258	-80.55964660644531	918.2205810546875	244.2047271728516	-100.3048858642578	1093.11572265625	33.22271347045898	-37.87893676757812	1027.786987304688	21.92973518371582	9.242281913757324	1007.529907226562	33.2015380859375	-102.526741027832	854.7366333007812	36.13238143920898	-10.84615325927734	937.989990234375	453.5382995605469	208.1203308105469	988.16455078125	709.9547119140625	236.9409332275391	883.3250732421875	41.80668640136719	171.5039367675781	942.3333740234375	336.2966003417969	196.4546661376953	1075.506713867188	34.10140991210938	115.3803939819336	1018.280090332031	29.70595550537109	74.88322448730469	983.4132690429688	27.67758560180664	187.6247711181641	832.1420288085938	44.60226440429688	123.9566268920898	835.5376586914062	971.9774169921875	140.8901214599609	974.2606201171875	718.8909301757812	-158.10205078125	nan	nan	nan	nan	nan	nan	
370	3.69	827.4607543945312	973.8720703125	11.75118732452393	827.621337890625	1025.293090820312	80.17421722412109	1039.651489257812	1220.224609375	50.38812255859375	804.8157958984375	1144.156494140625	69.89979553222656	831.1270751953125	1393.9619140625	46.49185180664062	989.4938354492188	1342.415283203125	46.71386337280273	791.0945434570312	1255.042236328125	119.3786163330078	818.6687622070312	1354.140014648438	-53.4564208984375	901.4200439453125	1372.863525390625	-113.2893371582031	882.08056640625	1251.221435546875	-177.1648559570312	896.5075073242188	1045.75439453125	-183.7687530517578	838.6857299804688	1035.901000976562	-121.2496566772461	983.4812622070312	798.1404418945312	-145.1441040039062	936.9918212890625	789.4812622070312	-195.4369506835938	906.6226196289062	941.6276245117188	-188.6359558105469	979.0714111328125	636.9098510742188	-139.8526306152344	927.6575317382812	719.61083984375	-187.7619171142578	896.0518798828125	1385.484130859375	207.5259399414062	892.4375	1320.8408203125	273.2920227050781	938.9674682617188	1057.620483398438	318.3336181640625	901.0510864257812	1039.003540039062	233.4129486083984	1111.638427734375	875.3877563476562	268.72021484375	1084.275024414062	847.8272094726562	335.1043395996094	980.78271484375	997.3265380859375	329.1889343261719	1181.995361328125	715.6876220703125	276.5956726074219	1170.721557617188	788.2118530273438	279.39013671875	1124.760986328125	773.3355712890625	328.5949096679688	868.4609375	1594.472534179688	125.278434753418	1029.04443359375	1623.61962890625	-4.641853332519531	1025.7568359375	1623.371215820312	96.41104888916016	846.3507690429688	1587.426391601562	-18.19755172729492	907.4349365234375	916.92431640625	-97.09166717529297	924.1705322265625	917.8475952148438	243.3461151123047	1024.573974609375	948.2780151367188	193.4516143798828	1030.281372070312	947.1456909179688	-47.44010162353516	952.4219970703125	459.40625	-96.67105102539062	953.9113159179688	600.2095947265625	-103.2399368286133	883.1907958984375	40.70869827270508	-80.54544830322266	916.8994140625	244.017578125	-100.5142669677734	1093.025268554688	33.24198532104492	-37.91340637207031	1027.762329101562	21.96697235107422	9.216392517089844	1007.49267578125	33.18796539306641	-102.5576248168945	854.6065673828125	35.96247482299805	-10.86544513702393	938.8301391601562	453.501220703125	207.6412506103516	989.670166015625	709.9219360351562	236.0723266601562	883.354248046875	41.87164688110352	171.4024353027344	943.0239868164062	336.1882934570312	196.0442047119141	1075.525512695312	34.1328010559082	115.3774566650391	1018.285217285156	29.66242980957031	74.85017395019531	983.4525146484375	27.72955513000488	187.5691070556641	832.17578125	44.64772033691406	123.8754730224609	837.22216796875	971.940673828125	140.1131134033203	984.8653564453125	719.3862915039062	-159.2269592285156	nan	nan	nan	nan	nan	nan	
